<svg width="1130" height="352" viewBox="0 0 1130 352" fill="none" xmlns="http://www.w3.org/2000/svg">
<path d="M43.269 346H0.769178L123.692 11.2323H165.538L288.46 346H245.96L145.922 64.1936H143.307L43.269 346ZM58.9612 215.231H230.268V251.193H58.9612V215.231ZM409.755 351.231C386.216 351.231 365.947 345.673 348.947 334.558C331.947 323.442 318.87 308.132 309.717 288.625C300.563 269.119 295.986 246.834 295.986 221.77C295.986 196.27 300.672 173.767 310.044 154.26C319.524 134.645 332.71 119.334 349.601 108.328C366.601 97.2127 386.434 91.655 409.101 91.655C426.755 91.655 442.665 94.9242 456.831 101.463C470.998 108.001 482.604 117.155 491.648 128.924C500.693 140.693 506.305 154.424 508.485 170.116H469.908C466.966 158.674 460.427 148.539 450.293 139.712C440.267 130.777 426.755 126.309 409.755 126.309C394.716 126.309 381.53 130.232 370.197 138.078C358.973 145.815 350.2 156.767 343.88 170.933C337.668 184.991 334.563 201.501 334.563 220.462C334.563 239.859 337.614 256.75 343.716 271.135C349.928 285.52 358.646 296.689 369.87 304.644C381.203 312.6 394.498 316.577 409.755 316.577C419.78 316.577 428.88 314.833 437.053 311.346C445.226 307.859 452.145 302.846 457.812 296.308C463.479 289.769 467.511 281.923 469.908 272.77H508.485C506.305 287.59 500.911 300.939 492.302 312.817C483.802 324.587 472.524 333.958 458.466 340.933C444.517 347.798 428.28 351.231 409.755 351.231ZM642.529 351.231C618.337 351.231 597.469 345.891 579.924 335.212C562.488 324.423 549.03 309.385 539.549 290.096C530.177 270.699 525.491 248.141 525.491 222.424C525.491 196.706 530.177 174.039 539.549 154.424C549.03 134.7 562.216 119.334 579.107 108.328C596.106 97.2127 615.94 91.655 638.606 91.655C651.683 91.655 664.597 93.8345 677.347 98.1934C690.096 102.552 701.702 109.636 712.164 119.443C722.625 129.142 730.962 142.001 737.173 158.02C743.385 174.039 746.49 193.764 746.49 217.193V233.539H552.953V200.193H707.26C707.26 186.026 704.427 173.385 698.76 162.27C693.202 151.155 685.247 142.382 674.895 135.953C664.651 129.523 652.555 126.309 638.606 126.309C623.241 126.309 609.946 130.123 598.722 137.751C587.607 145.27 579.052 155.078 573.059 167.174C567.065 179.27 564.068 192.238 564.068 206.078V228.308C564.068 247.27 567.337 263.343 573.876 276.529C580.523 289.606 589.732 299.577 601.501 306.442C613.27 313.199 626.946 316.577 642.529 316.577C652.664 316.577 661.818 315.16 669.991 312.327C678.273 309.385 685.411 305.026 691.404 299.25C697.398 293.366 702.029 286.064 705.298 277.346L742.567 287.808C738.644 300.449 732.051 311.564 722.789 321.154C713.526 330.635 702.084 338.045 688.462 343.385C674.84 348.615 659.529 351.231 642.529 351.231ZM816.131 11.2323V346H777.554V11.2323H816.131ZM859.169 346V94.9242H897.746V346H859.169ZM878.784 53.0783C871.265 53.0783 864.781 50.5174 859.332 45.3956C853.993 40.2738 851.323 34.1168 851.323 26.9245C851.323 19.7323 853.993 13.5752 859.332 8.45344C864.781 3.33168 871.265 0.770798 878.784 0.770798C886.303 0.770798 892.733 3.33168 898.072 8.45344C903.521 13.5752 906.246 19.7323 906.246 26.9245C906.246 34.1168 903.521 40.2738 898.072 45.3956C892.733 50.5174 886.303 53.0783 878.784 53.0783ZM1014.67 351.885C998.757 351.885 984.318 348.888 971.35 342.894C958.382 336.792 948.084 328.019 940.456 316.577C932.828 305.026 929.014 291.077 929.014 274.731C929.014 260.347 931.847 248.686 937.514 239.75C943.181 230.706 950.754 223.622 960.235 218.501C969.716 213.379 980.177 209.565 991.619 207.058C1003.17 204.443 1014.78 202.372 1026.44 200.847C1041.69 198.885 1054.06 197.414 1063.54 196.433C1073.13 195.344 1080.11 193.546 1084.47 191.039C1088.93 188.533 1091.17 184.174 1091.17 177.962V176.655C1091.17 160.526 1086.75 147.994 1077.93 139.059C1069.21 130.123 1055.97 125.655 1038.21 125.655C1019.79 125.655 1005.35 129.687 994.889 137.751C984.427 145.815 977.071 154.424 972.821 163.578L936.206 150.501C942.745 135.245 951.463 123.366 962.36 114.866C973.366 106.257 985.353 100.264 998.321 96.8857C1011.4 93.3986 1024.26 91.655 1036.9 91.655C1044.96 91.655 1054.22 92.6358 1064.69 94.5973C1075.26 96.4498 1085.45 100.318 1095.25 106.203C1105.17 112.088 1113.4 120.969 1119.94 132.847C1126.47 144.725 1129.74 160.635 1129.74 180.578V346H1091.17V312H1089.21C1086.59 317.449 1082.23 323.279 1076.13 329.49C1070.03 335.702 1061.91 340.987 1051.77 345.346C1041.64 349.705 1029.27 351.885 1014.67 351.885ZM1020.55 317.231C1035.81 317.231 1048.67 314.234 1059.13 308.241C1069.7 302.247 1077.65 294.51 1082.99 285.029C1088.44 275.548 1091.17 265.577 1091.17 255.116V219.808C1089.53 221.77 1085.94 223.568 1080.38 225.202C1074.93 226.728 1068.61 228.09 1061.42 229.289C1054.33 230.379 1047.41 231.359 1040.66 232.231C1034.01 232.994 1028.62 233.648 1024.48 234.193C1014.45 235.5 1005.08 237.625 996.36 240.568C987.751 243.401 980.777 247.706 975.437 253.481C970.206 259.148 967.591 266.885 967.591 276.693C967.591 290.096 972.549 300.231 982.466 307.096C992.491 313.853 1005.19 317.231 1020.55 317.231Z" fill="#CDCBFF"/>
</svg>
