<svg width="132" height="32" viewBox="0 0 132 32" fill="none" xmlns="http://www.w3.org/2000/svg">
<g id="Logo">
<path id="Vector" d="M38.457 22.5963H47.7854V19.7865H41.7725V9.20312H38.457V22.5963Z" fill="#C2C2C2"/>
<path id="Vector_2" d="M53.3169 20.7219C51.9869 20.7219 51.2939 19.5605 51.2939 17.8185C51.2939 16.0764 51.9869 14.8963 53.3169 14.8963C54.6468 14.8963 55.3586 16.0764 55.3586 17.8185C55.3586 19.5605 54.6468 20.7219 53.3169 20.7219ZM53.3356 22.8948C56.4263 22.8948 58.4494 20.7032 58.4494 17.8185C58.4494 14.9338 56.4263 12.7422 53.3356 12.7422C50.2636 12.7422 48.2031 14.9338 48.2031 17.8185C48.2031 20.7032 50.2636 22.8948 53.3356 22.8948Z" fill="#C2C2C2"/>
<path id="Vector_3" d="M63.7952 25.9137C65.2188 25.9137 66.4739 25.5952 67.3168 24.846C68.0848 24.1529 68.5905 23.1039 68.5905 21.6616V13.0075H65.6684V14.0378H65.6309C65.069 13.2323 64.2073 12.7266 62.9336 12.7266C60.5546 12.7266 58.9062 14.7121 58.9062 17.5219C58.9062 20.4628 60.9105 22.0737 63.0647 22.0737C64.2261 22.0737 64.9566 21.6054 65.5185 20.9685H65.5935V21.9238C65.5935 23.0852 65.0503 23.7595 63.7578 23.7595C62.7463 23.7595 62.2405 23.3287 62.0719 22.823H59.1123C59.412 24.8272 61.1541 25.9137 63.7952 25.9137ZM63.7765 19.8071C62.6339 19.8071 61.8846 18.8706 61.8846 17.4282C61.8846 15.9671 62.6339 15.0306 63.7765 15.0306C65.0503 15.0306 65.7246 16.117 65.7246 17.4095C65.7246 18.7582 65.1064 19.8071 63.7765 19.8071Z" fill="#C2C2C2"/>
<path id="Vector_4" d="M74.5981 20.7219C73.2682 20.7219 72.5751 19.5605 72.5751 17.8185C72.5751 16.0764 73.2682 14.8963 74.5981 14.8963C75.9281 14.8963 76.6399 16.0764 76.6399 17.8185C76.6399 19.5605 75.9281 20.7219 74.5981 20.7219ZM74.6169 22.8948C77.7076 22.8948 79.7302 20.7032 79.7302 17.8185C79.7302 14.9338 77.7076 12.7422 74.6169 12.7422C71.5449 12.7422 69.4844 14.9338 69.4844 17.8185C69.4844 20.7032 71.5449 22.8948 74.6169 22.8948Z" fill="#C2C2C2"/>
<path id="Vector_5" d="M80.625 22.5963H83.6783V13.0057H80.625V22.5963ZM80.625 11.6757H83.6783V9.20312H80.625V11.6757Z" fill="#C2C2C2"/>
<path id="Vector_6" d="M85 25.7638H88.0533V21.6054H88.0907C88.6901 22.4109 89.5705 22.8979 90.8068 22.8979C93.3169 22.8979 94.984 20.9123 94.984 17.8029C94.984 14.9182 93.4293 12.7266 90.8818 12.7266C89.5705 12.7266 88.6339 13.3072 87.9783 14.1689H87.9221V13.0075H85V25.7638ZM90.0201 20.5377C88.7089 20.5377 87.9596 19.47 87.9596 17.9152C87.9596 16.3605 88.634 15.1804 89.9639 15.1804C91.2751 15.1804 91.8933 16.2669 91.8933 17.9152C91.8933 19.5449 91.1815 20.5377 90.0201 20.5377Z" fill="#C2C2C2"/>
<path id="Vector_7" d="M99.9572 22.8979C102.467 22.8979 104.322 21.8114 104.322 19.7135C104.322 17.2596 102.336 16.8288 100.65 16.5478C99.4327 16.3231 98.3462 16.2294 98.3462 15.5551C98.3462 14.9556 98.9269 14.6747 99.6762 14.6747C100.519 14.6747 101.1 14.9369 101.212 15.7986H104.022C103.872 13.9067 102.411 12.7266 99.6949 12.7266C97.4284 12.7266 95.5552 13.7755 95.5552 15.7986C95.5552 18.0464 97.3347 18.4959 99.0018 18.7769C100.276 19.0017 101.437 19.0953 101.437 19.957C101.437 20.5751 100.856 20.9123 99.9384 20.9123C98.9269 20.9123 98.29 20.444 98.1777 19.4887H95.293C95.3866 21.6054 97.1474 22.8979 99.9572 22.8979Z" fill="#C2C2C2"/>
<path id="Vector_8" d="M108.469 22.8794C109.799 22.8794 110.642 22.3549 111.335 21.4183H111.392V22.5984H114.314V13.0078H111.26V18.3651C111.26 19.5077 110.624 20.2944 109.575 20.2944C108.6 20.2944 108.132 19.7138 108.132 18.6648V13.0078H105.098V19.3017C105.098 21.4371 106.259 22.8794 108.469 22.8794Z" fill="#C2C2C2"/>
<path id="Vector_9" d="M115.641 22.5982H118.694V17.2222C118.694 16.0795 119.256 15.2741 120.211 15.2741C121.129 15.2741 121.56 15.8735 121.56 16.9037V22.5982H124.613V17.2222C124.613 16.0795 125.156 15.2741 126.13 15.2741C127.048 15.2741 127.479 15.8735 127.479 16.9037V22.5982H130.532V16.3605C130.532 14.2064 129.446 12.7266 127.273 12.7266C126.037 12.7266 125.006 13.2511 124.257 14.4124H124.22C123.733 13.3822 122.777 12.7266 121.522 12.7266C120.136 12.7266 119.218 13.3822 118.619 14.375H118.563V13.0075H115.641V22.5982Z" fill="#C2C2C2"/>
<path id="Vector_10" d="M19.8305 1.54518L16.7608 0.722656L14.174 10.377L11.8385 1.66099L8.7688 2.48351L11.2921 11.9005L5.00713 5.61552L2.75996 7.86269L9.6538 14.7566L1.06862 12.4562L0.246094 15.5258L9.62648 18.0393C9.51908 17.5761 9.46226 17.0934 9.46226 16.5975C9.46226 13.0872 12.3079 10.2415 15.8182 10.2415C19.3286 10.2415 22.1742 13.0872 22.1742 16.5975C22.1742 17.0902 22.1181 17.5699 22.012 18.0304L30.5371 20.3147L31.3595 17.245L21.9419 14.7215L30.5276 12.421L29.7051 9.35132L20.2878 11.8746L26.5727 5.58972L24.3256 3.34254L17.5274 10.1408L19.8305 1.54518Z" fill="#C2C2C2"/>
<path id="Vector_11" d="M22.0031 18.0625C21.7399 19.1752 21.1843 20.1747 20.4219 20.9756L26.5979 27.1517L28.8451 24.9045L22.0031 18.0625Z" fill="#C2C2C2"/>
<path id="Vector_12" d="M20.3596 21.0391C19.5881 21.8271 18.613 22.4152 17.5195 22.7183L19.7669 31.1054L22.8365 30.2828L20.3596 21.0391Z" fill="#C2C2C2"/>
<path id="Vector_13" d="M17.4067 22.7515C16.8994 22.882 16.3676 22.9513 15.8197 22.9513C15.2326 22.9513 14.6641 22.8717 14.1244 22.7227L11.875 31.1174L14.9447 31.9399L17.4067 22.7515Z" fill="#C2C2C2"/>
<path id="Vector_14" d="M14.0128 22.6923C12.936 22.3742 11.9783 21.7786 11.2225 20.9883L5.03125 27.1795L7.27842 29.4267L14.0128 22.6923Z" fill="#C2C2C2"/>
<path id="Vector_15" d="M11.1725 20.9317C10.4297 20.1364 9.88855 19.1502 9.63099 18.0547L1.07812 20.3464L1.90064 23.4161L11.1725 20.9317Z" fill="#C2C2C2"/>
</g>
</svg>
