<svg width="134" height="32" viewBox="0 0 134 32" fill="none" xmlns="http://www.w3.org/2000/svg">
<g id="Logo" clip-path="url(#clip0_381_9274)">
<path id="Vector" d="M40.8242 22.8854H50.1526V20.0756H44.1397V9.49219H40.8242V22.8854Z" fill="#C2C2C2"/>
<path id="Vector_2" d="M55.6802 21.0149C54.3502 21.0149 53.6571 19.8535 53.6571 18.1114C53.6571 16.3694 54.3502 15.1893 55.6802 15.1893C57.0101 15.1893 57.7219 16.3694 57.7219 18.1114C57.7219 19.8535 57.0101 21.0149 55.6802 21.0149ZM55.6989 23.1877C58.7896 23.1877 60.8126 20.9961 60.8126 18.1114C60.8126 15.2268 58.7896 13.0352 55.6989 13.0352C52.6269 13.0352 50.5664 15.2268 50.5664 18.1114C50.5664 20.9961 52.6269 23.1877 55.6989 23.1877Z" fill="#C2C2C2"/>
<path id="Vector_3" d="M66.1624 26.2027C67.586 26.2027 68.841 25.8843 69.684 25.135C70.452 24.442 70.9577 23.393 70.9577 21.9506V13.2966H68.0356V14.3268H67.9981C67.4362 13.5214 66.5745 13.0156 65.3008 13.0156C62.9218 13.0156 61.2734 15.0012 61.2734 17.8109C61.2734 20.7518 63.2777 22.3627 65.4319 22.3627C66.5932 22.3627 67.3238 21.8945 67.8857 21.2576H67.9607V22.2129C67.9607 23.3743 67.4174 24.0486 66.125 24.0486C65.1134 24.0486 64.6077 23.6178 64.4391 23.112H61.4795C61.7792 25.1163 63.5212 26.2027 66.1624 26.2027ZM66.1437 20.0962C65.0011 20.0962 64.2518 19.1596 64.2518 17.7173C64.2518 16.2562 65.0011 15.3196 66.1437 15.3196C67.4174 15.3196 68.0918 16.4061 68.0918 17.6986C68.0918 19.0472 67.4736 20.0962 66.1437 20.0962Z" fill="#C2C2C2"/>
<path id="Vector_4" d="M76.9692 21.0149C75.6393 21.0149 74.9462 19.8535 74.9462 18.1114C74.9462 16.3694 75.6393 15.1893 76.9692 15.1893C78.2992 15.1893 79.0107 16.3694 79.0107 18.1114C79.0107 19.8535 78.2992 21.0149 76.9692 21.0149ZM76.988 23.1877C80.0784 23.1877 82.1014 20.9961 82.1014 18.1114C82.1014 15.2268 80.0784 13.0352 76.988 13.0352C73.916 13.0352 71.8555 15.2268 71.8555 18.1114C71.8555 20.9961 73.916 23.1877 76.988 23.1877Z" fill="#C2C2C2"/>
<path id="Vector_5" d="M82.9922 22.8854H86.0455V13.2947H82.9922V22.8854ZM82.9922 11.9648H86.0455V9.49219H82.9922V11.9648Z" fill="#C2C2C2"/>
<path id="Vector_6" d="M87.3711 26.0529H90.4244V21.8945H90.4618C91.0612 22.6999 91.9416 23.1869 93.1779 23.1869C95.688 23.1869 97.3551 21.2014 97.3551 18.0919C97.3551 15.2072 95.8004 13.0156 93.2528 13.0156C91.9416 13.0156 91.005 13.5963 90.3494 14.458H90.2932V13.2966H87.3711V26.0529ZM92.3912 20.8267C91.08 20.8267 90.3307 19.759 90.3307 18.2043C90.3307 16.6496 91.005 15.4695 92.335 15.4695C93.6462 15.4695 94.2644 16.5559 94.2644 18.2043C94.2644 19.834 93.5526 20.8267 92.3912 20.8267Z" fill="#C2C2C2"/>
<path id="Vector_7" d="M102.324 23.1869C104.834 23.1869 106.689 22.1005 106.689 20.0026C106.689 17.5487 104.703 17.1179 103.017 16.8369C101.8 16.6121 100.713 16.5185 100.713 15.8441C100.713 15.2447 101.294 14.9637 102.043 14.9637C102.886 14.9637 103.467 15.226 103.579 16.0876H106.389C106.239 14.1957 104.778 13.0156 102.062 13.0156C99.7956 13.0156 97.9224 14.0646 97.9224 16.0876C97.9224 18.3354 99.7019 18.785 101.369 19.066C102.643 19.2907 103.804 19.3844 103.804 20.2461C103.804 20.8642 103.223 21.2014 102.306 21.2014C101.294 21.2014 100.657 20.7331 100.545 19.7778H97.6602C97.7538 21.8945 99.5146 23.1869 102.324 23.1869Z" fill="#C2C2C2"/>
<path id="Vector_8" d="M110.837 23.1685C112.166 23.1685 113.009 22.644 113.702 21.7074H113.759V22.8875H116.681V13.2969H113.628V18.6541C113.628 19.7968 112.991 20.5835 111.942 20.5835C110.968 20.5835 110.499 20.0028 110.499 18.9539V13.2969H107.465V19.5907C107.465 21.7261 108.626 23.1685 110.837 23.1685Z" fill="#C2C2C2"/>
<path id="Vector_9" d="M118.008 22.8872H121.061V17.5112C121.061 16.3686 121.623 15.5631 122.578 15.5631C123.496 15.5631 123.927 16.1626 123.927 17.1928V22.8872H126.98V17.5112C126.98 16.3686 127.524 15.5631 128.498 15.5631C129.415 15.5631 129.846 16.1626 129.846 17.1928V22.8872H132.9V16.6496C132.9 14.4954 131.813 13.0156 129.64 13.0156C128.404 13.0156 127.374 13.5401 126.624 14.7015H126.587C126.1 13.6712 125.145 13.0156 123.89 13.0156C122.503 13.0156 121.586 13.6712 120.986 14.664H120.93V13.2966H118.008V22.8872Z" fill="#C2C2C2"/>
<path id="Vector_10" fill-rule="evenodd" clip-rule="evenodd" d="M16.4925 31.4734C25.1136 31.4734 32.1023 24.4847 32.1023 15.8636C32.1023 7.24263 25.1136 0.253906 16.4925 0.253906C7.87153 0.253906 0.882812 7.24263 0.882812 15.8636C0.882812 24.4847 7.87153 31.4734 16.4925 31.4734ZM18.9019 12.3144C20.2325 10.9838 20.2325 8.82644 18.9019 7.49579C17.5712 6.16515 15.4139 6.16515 14.0832 7.49579C12.7527 8.82644 12.7527 10.9838 14.0832 12.3144L16.4925 14.7237L18.9019 12.3144ZM20.0418 18.273C21.3725 19.6036 23.5298 19.6036 24.8605 18.273C26.191 16.9423 26.191 14.785 24.8605 13.4543C23.5298 12.1238 21.3725 12.1238 20.0418 13.4543L17.6325 15.8637L20.0418 18.273ZM18.9019 24.2316C20.2325 22.9009 20.2325 20.7436 18.9019 19.4129L16.4925 17.0036L14.0832 19.4129C12.7527 20.7436 12.7527 22.9009 14.0832 24.2316C15.4139 25.5622 17.5712 25.5622 18.9019 24.2316ZM8.12467 18.273C6.79406 16.9423 6.79406 14.785 8.12467 13.4543C9.45535 12.1238 11.6127 12.1238 12.9433 13.4543L15.3526 15.8637L12.9433 18.273C11.6127 19.6036 9.45535 19.6036 8.12467 18.273Z" fill="#C2C2C2"/>
</g>
<defs>
<clipPath id="clip0_381_9274">
<rect width="132.683" height="32" fill="white" transform="translate(0.804688)"/>
</clipPath>
</defs>
</svg>
