<svg width="133" height="32" viewBox="0 0 133 32" fill="none" xmlns="http://www.w3.org/2000/svg">
<g id="Logo" clip-path="url(#clip0_381_9263)">
<path id="Vector" d="M40.5977 21.9635H49.926V19.1537H43.9132V8.57031H40.5977V21.9635Z" fill="#C2C2C2"/>
<path id="Vector_2" d="M55.4536 20.0891C54.1237 20.0891 53.4306 18.9277 53.4306 17.1857C53.4306 15.4436 54.1237 14.2635 55.4536 14.2635C56.7836 14.2635 57.4954 15.4436 57.4954 17.1857C57.4954 18.9277 56.7836 20.0891 55.4536 20.0891ZM55.4723 22.262C58.5631 22.262 60.5861 20.0704 60.5861 17.1857C60.5861 14.301 58.5631 12.1094 55.4723 12.1094C52.4003 12.1094 50.3398 14.301 50.3398 17.1857C50.3398 20.0704 52.4003 22.262 55.4723 22.262Z" fill="#C2C2C2"/>
<path id="Vector_3" d="M65.9359 25.277C67.3595 25.277 68.6145 24.9585 69.4574 24.2093C70.2254 23.5162 70.7312 22.4672 70.7312 21.0249V12.3708H67.809V13.4011H67.7716C67.2096 12.5956 66.348 12.0898 65.0742 12.0898C62.6953 12.0898 61.0469 14.0754 61.0469 16.8852C61.0469 19.826 63.0512 21.437 65.2053 21.437C66.3667 21.437 67.0972 20.9687 67.6592 20.3318H67.7341V21.2871C67.7341 22.4485 67.1909 23.1228 65.8984 23.1228C64.8869 23.1228 64.3811 22.692 64.2125 22.1862H61.2529C61.5526 24.1905 63.2947 25.277 65.9359 25.277ZM65.9171 19.1704C64.7745 19.1704 64.0252 18.2338 64.0252 16.7915C64.0252 15.3304 64.7745 14.3938 65.9171 14.3938C67.1909 14.3938 67.8652 15.4803 67.8652 16.7728C67.8652 18.1215 67.2471 19.1704 65.9171 19.1704Z" fill="#C2C2C2"/>
<path id="Vector_4" d="M76.7388 20.0891C75.4088 20.0891 74.7157 18.9277 74.7157 17.1857C74.7157 15.4436 75.4088 14.2635 76.7388 14.2635C78.0687 14.2635 78.7805 15.4436 78.7805 17.1857C78.7805 18.9277 78.0687 20.0891 76.7388 20.0891ZM76.7575 22.262C79.8482 22.262 81.8712 20.0704 81.8712 17.1857C81.8712 14.301 79.8482 12.1094 76.7575 12.1094C73.6855 12.1094 71.625 14.301 71.625 17.1857C71.625 20.0704 73.6855 22.262 76.7575 22.262Z" fill="#C2C2C2"/>
<path id="Vector_5" d="M82.7617 21.9635H85.815V12.3728H82.7617V21.9635ZM82.7617 11.0429H85.815V8.57031H82.7617V11.0429Z" fill="#C2C2C2"/>
<path id="Vector_6" d="M87.1406 25.1271H90.1939V20.9687H90.2314C90.8308 21.7741 91.7112 22.2612 92.9475 22.2612C95.4575 22.2612 97.1246 20.2756 97.1246 17.1661C97.1246 14.2815 95.5699 12.0898 93.0224 12.0898C91.7112 12.0898 90.7746 12.6705 90.119 13.5322H90.0628V12.3708H87.1406V25.1271ZM92.1607 19.901C90.8495 19.901 90.1002 18.8333 90.1002 17.2785C90.1002 15.7238 90.7746 14.5437 92.1045 14.5437C93.4157 14.5437 94.0339 15.6301 94.0339 17.2785C94.0339 18.9082 93.3221 19.901 92.1607 19.901Z" fill="#C2C2C2"/>
<path id="Vector_7" d="M102.094 22.2612C104.604 22.2612 106.458 21.1747 106.458 19.0768C106.458 16.6229 104.473 16.1921 102.787 15.9111C101.569 15.6863 100.483 15.5927 100.483 14.9183C100.483 14.3189 101.064 14.0379 101.813 14.0379C102.656 14.0379 103.237 14.3002 103.349 15.1618H106.159C106.009 13.2699 104.548 12.0898 101.832 12.0898C99.5651 12.0898 97.6919 13.1388 97.6919 15.1618C97.6919 17.4096 99.4714 17.8592 101.139 18.1402C102.412 18.365 103.574 18.4586 103.574 19.3203C103.574 19.9384 102.993 20.2756 102.075 20.2756C101.064 20.2756 100.427 19.8073 100.314 18.852H97.4297C97.5233 20.9687 99.2841 22.2612 102.094 22.2612Z" fill="#C2C2C2"/>
<path id="Vector_8" d="M110.61 22.2427C111.94 22.2427 112.783 21.7182 113.476 20.7816H113.532V21.9617H116.454V12.3711H113.401V17.7284C113.401 18.871 112.764 19.6577 111.715 19.6577C110.741 19.6577 110.273 19.077 110.273 18.0281V12.3711H107.238V18.6649C107.238 20.8004 108.4 22.2427 110.61 22.2427Z" fill="#C2C2C2"/>
<path id="Vector_9" d="M117.781 21.9615H120.835V16.5855C120.835 15.4428 121.396 14.6374 122.352 14.6374C123.27 14.6374 123.7 15.2368 123.7 16.267V21.9615H126.754V16.5855C126.754 15.4428 127.297 14.6374 128.271 14.6374C129.189 14.6374 129.62 15.2368 129.62 16.267V21.9615H132.673V15.7238C132.673 13.5696 131.587 12.0898 129.414 12.0898C128.177 12.0898 127.147 12.6143 126.398 13.7757H126.36C125.873 12.7455 124.918 12.0898 123.663 12.0898C122.277 12.0898 121.359 12.7455 120.76 13.7382H120.703V12.3708H117.781V21.9615Z" fill="#C2C2C2"/>
<path id="Vector_10" fill-rule="evenodd" clip-rule="evenodd" d="M16.266 31.325C24.8871 31.325 31.8758 24.3362 31.8758 15.7152C31.8758 7.0942 24.8871 0.105469 16.266 0.105469C7.64496 0.105469 0.65625 7.0942 0.65625 15.7152C0.65625 24.3362 7.64496 31.325 16.266 31.325ZM21.1357 7.37715C21.3727 6.53517 20.5557 6.03728 19.8094 6.56892L9.39234 13.99C8.58305 14.5666 8.71035 15.7152 9.58356 15.7152H12.3267V15.694H17.6728L13.3167 17.231L11.3963 24.0533C11.1593 24.8953 11.9763 25.3932 12.7226 24.8615L23.1397 17.4405C23.949 16.8639 23.8216 15.7152 22.9485 15.7152H18.7886L21.1357 7.37715Z" fill="#C2C2C2"/>
</g>
<defs>
<clipPath id="clip0_381_9263">
<rect width="132.683" height="32" fill="white" transform="translate(0.121094)"/>
</clipPath>
</defs>
</svg>
