<svg width="131" height="32" viewBox="0 0 131 32" fill="none" xmlns="http://www.w3.org/2000/svg">
<g id="Logo" clip-path="url(#clip0_381_9285)">
<path id="Vector" d="M38.4414 22.4752H47.7698V19.6654H41.7569V9.08203H38.4414V22.4752Z" fill="#C2C2C2"/>
<path id="Vector_2" d="M53.2974 20.5969C51.9674 20.5969 51.2743 19.4355 51.2743 17.6935C51.2743 15.9514 51.9674 14.7713 53.2974 14.7713C54.6273 14.7713 55.3391 15.9514 55.3391 17.6935C55.3391 19.4355 54.6273 20.5969 53.2974 20.5969ZM53.3161 22.7698C56.4068 22.7698 58.4298 20.5782 58.4298 17.6935C58.4298 14.8088 56.4068 12.6172 53.3161 12.6172C50.2441 12.6172 48.1836 14.8088 48.1836 17.6935C48.1836 20.5782 50.2441 22.7698 53.3161 22.7698Z" fill="#C2C2C2"/>
<path id="Vector_3" d="M63.7796 25.7887C65.2032 25.7887 66.4582 25.4702 67.3012 24.721C68.0692 24.0279 68.5749 22.9789 68.5749 21.5366V12.8825H65.6528V13.9128H65.6153C65.0534 13.1073 64.1917 12.6016 62.9179 12.6016C60.539 12.6016 58.8906 14.5871 58.8906 17.3969C58.8906 20.3378 60.8949 21.9487 63.0491 21.9487C64.2104 21.9487 64.941 21.4804 65.5029 20.8435H65.5778V21.7988C65.5778 22.9602 65.0346 23.6345 63.7421 23.6345C62.7306 23.6345 62.2249 23.2037 62.0563 22.698H59.0967C59.3964 24.7022 61.1384 25.7887 63.7796 25.7887ZM63.7609 19.6821C62.6182 19.6821 61.869 18.7456 61.869 17.3032C61.869 15.8421 62.6182 14.9056 63.7609 14.9056C65.0346 14.9056 65.709 15.992 65.709 17.2845C65.709 18.6332 65.0908 19.6821 63.7609 19.6821Z" fill="#C2C2C2"/>
<path id="Vector_4" d="M74.5864 20.5969C73.2565 20.5969 72.5634 19.4355 72.5634 17.6935C72.5634 15.9514 73.2565 14.7713 74.5864 14.7713C75.9164 14.7713 76.6282 15.9514 76.6282 17.6935C76.6282 19.4355 75.9164 20.5969 74.5864 20.5969ZM74.6051 22.7698C77.6959 22.7698 79.7191 20.5782 79.7191 17.6935C79.7191 14.8088 77.6959 12.6172 74.6051 12.6172C71.5331 12.6172 69.4727 14.8088 69.4727 17.6935C69.4727 20.5782 71.5331 22.7698 74.6051 22.7698Z" fill="#C2C2C2"/>
<path id="Vector_5" d="M80.6094 22.4752H83.6626V12.8846H80.6094V22.4752ZM80.6094 11.5546H83.6626V9.08203H80.6094V11.5546Z" fill="#C2C2C2"/>
<path id="Vector_6" d="M84.9883 25.6388H88.0416V21.4804H88.079C88.6784 22.2859 89.5588 22.7729 90.7951 22.7729C93.3052 22.7729 94.9723 20.7873 94.9723 17.6779C94.9723 14.7932 93.4176 12.6016 90.87 12.6016C89.5588 12.6016 88.6222 13.1822 87.9666 14.0439H87.9104V12.8825H84.9883V25.6388ZM90.0084 20.4127C88.6972 20.4127 87.9479 19.345 87.9479 17.7902C87.9479 16.2355 88.6222 15.0554 89.9522 15.0554C91.2634 15.0554 91.8816 16.1419 91.8816 17.7902C91.8816 19.4199 91.1697 20.4127 90.0084 20.4127Z" fill="#C2C2C2"/>
<path id="Vector_7" d="M99.9415 22.7729C102.452 22.7729 104.306 21.6864 104.306 19.5885C104.306 17.1346 102.32 16.7038 100.635 16.4228C99.417 16.1981 98.3306 16.1044 98.3306 15.4301C98.3306 14.8306 98.9113 14.5497 99.6606 14.5497C100.503 14.5497 101.084 14.8119 101.197 15.6736H104.006C103.856 13.7817 102.395 12.6016 99.6793 12.6016C97.4128 12.6016 95.5396 13.6505 95.5396 15.6736C95.5396 17.9214 97.3191 18.3709 98.9862 18.6519C100.26 18.8767 101.421 18.9703 101.421 19.832C101.421 20.4501 100.841 20.7873 99.9228 20.7873C98.9113 20.7873 98.2744 20.319 98.162 19.3637H95.2773C95.371 21.4804 97.1318 22.7729 99.9415 22.7729Z" fill="#C2C2C2"/>
<path id="Vector_8" d="M108.454 22.7544C109.784 22.7544 110.627 22.2299 111.32 21.2934H111.376V22.4734H114.298V12.8828H111.245V18.2401C111.245 19.3827 110.608 20.1694 109.559 20.1694C108.585 20.1694 108.117 19.5888 108.117 18.5398V12.8828H105.082V19.1767C105.082 21.3121 106.243 22.7544 108.454 22.7544Z" fill="#C2C2C2"/>
<path id="Vector_9" d="M115.625 22.4732H118.678V17.0972C118.678 15.9545 119.24 15.1491 120.196 15.1491C121.113 15.1491 121.544 15.7485 121.544 16.7787V22.4732H124.597V17.0972C124.597 15.9545 125.141 15.1491 126.115 15.1491C127.033 15.1491 127.463 15.7485 127.463 16.7787V22.4732H130.517V16.2355C130.517 14.0814 129.43 12.6016 127.257 12.6016C126.021 12.6016 124.991 13.1261 124.242 14.2874H124.204C123.717 13.2572 122.762 12.6016 121.507 12.6016C120.121 12.6016 119.203 13.2572 118.603 14.25H118.547V12.8825H115.625V22.4732Z" fill="#C2C2C2"/>
<path id="Vector_10" fill-rule="evenodd" clip-rule="evenodd" d="M7.24171 3.03465C6.12509 3.81542 5.11538 4.73854 4.23885 5.7777C7.82074 5.44516 12.3714 5.98816 17.6547 8.62982C23.2965 11.4507 27.8396 11.546 31.0013 10.9362C30.7144 10.0676 30.3532 9.23275 29.9254 8.43915C26.3061 8.82088 21.6661 8.3156 16.2586 5.61191C12.8247 3.89499 9.79783 3.18774 7.24171 3.03465ZM27.8112 5.4298C24.9529 2.23631 20.7993 0.226562 16.1761 0.226562C14.8185 0.226562 13.5012 0.399914 12.2454 0.725669C13.9462 1.18975 15.753 1.8687 17.6547 2.81955C21.6138 4.79907 25.0319 5.43644 27.8112 5.4298ZM31.6773 13.9851C27.8576 14.7393 22.583 14.5844 16.2586 11.4222C10.3459 8.46584 5.63991 8.50307 2.46604 9.2084C2.30221 9.24477 2.14224 9.28301 1.98614 9.32282C1.5706 10.2265 1.2389 11.1769 1.00091 12.1637C1.2551 12.0958 1.51777 12.0313 1.78878 11.971C5.63924 11.1154 11.0796 11.1525 17.6547 14.4401C23.5674 17.3964 28.2734 17.3592 31.4473 16.6539C31.556 16.6297 31.6632 16.6048 31.7686 16.579C31.7801 16.3329 31.7859 16.0853 31.7859 15.8363C31.7859 15.21 31.749 14.5922 31.6773 13.9851ZM31.2589 19.8732C27.4763 20.5345 22.3553 20.2807 16.2586 17.2324C10.3459 14.2761 5.63991 14.3133 2.46604 15.0187C1.76153 15.1751 1.12776 15.3658 0.568693 15.5671C0.567169 15.6566 0.566406 15.7464 0.566406 15.8363C0.566406 24.4573 7.55512 31.4461 16.1761 31.4461C23.4012 31.4461 29.4798 26.5375 31.2589 19.8732Z" fill="#C2C2C2"/>
</g>
<defs>
<clipPath id="clip0_381_9285">
<rect width="130.341" height="32" fill="white" transform="translate(0.488281)"/>
</clipPath>
</defs>
</svg>
